<mxfile host="app.diagrams.net" modified="2023-07-04T22:49:48.734Z" agent="Mozilla/5.0 (Macintosh; Intel Mac OS X 10_15_7) AppleWebKit/537.36 (KHTML, like Gecko) Chrome/114.0.0.0 Safari/537.36" version="21.3.3" etag="j9b7yXcurAORntSx_xo3" type="github">
  <diagram name="Page-1" id="PZvORRibghxUqzyQ5Qg1">
    <mxGraphModel>
      <root>
        <mxCell id="0" />
        <mxCell id="1" parent="0" />
      </root>
    </mxGraphModel>
  </diagram>
</mxfile>
